<svg height="100" width="100" version="1.1" id="_x32_" xmlns="http://www.w3.org/2000/svg" viewBox="0 0 512 512" xml:space="preserve"><style>.st0{fill:#66a15b}</style><path class="st0" d="m488.765 125.844-40.089-33.043-1.497-30.898H344.554c2.732 7.516 4.583 15.441 5.316 23.706h74.73l.91 18.822 23.528 19.392H334.491V93.966c-.007-43.36-35.142-78.487-78.487-78.502-43.361.008-78.495 35.142-78.495 78.502v29.857H62.452l22.834-19.3 1.674-18.914h75.169c.725-8.265 2.578-16.19 5.309-23.706H65.26l-2.724 30.813-39.309 33.22-.316 5.047L0 496.536h512zM195.72 93.966c.008-16.684 6.737-31.677 17.656-42.619 10.935-10.927 25.952-17.664 42.627-17.664 16.668 0 31.685 6.737 42.612 17.664 10.927 10.942 17.656 25.936 17.656 42.619v29.857H195.72zM25.233 472.83l20.89-333.203h131.386v65.322c-7.886 3.496-13.404 11.351-13.404 20.557 0 12.424 10.078 22.494 22.51 22.494 12.423 0 22.502-10.07 22.502-22.494 0-9.198-5.517-17.061-13.396-20.557v-65.322h120.552v65.33c-7.871 3.496-13.381 11.352-13.381 20.55 0 12.424 10.062 22.494 22.486 22.494 12.44 0 22.51-10.07 22.51-22.494 0-9.198-5.509-17.061-13.396-20.557v-65.322h131.386l20.889 333.203H25.233z"/><path class="st0" d="M286.693 61.903h-61.379l-.764.625a44.24 44.24 0 0 0-12.2 23.081h87.3c-1.644-8.689-5.819-16.691-12.216-23.096z"/></svg>